<mxfile host="app.diagrams.net" modified="2023-06-30T09:14:38.535Z" agent="Mozilla/5.0 (Windows NT 10.0; Win64; x64) AppleWebKit/537.36 (KHTML, like Gecko) Chrome/114.0.0.0 Safari/537.36 Edg/114.0.1823.58" etag="DaVY03zkha_QpQ-kAVwI" version="21.5.2" type="device">
  <diagram name="Seite-1" id="muQ6CaPQVVgQOec2vyNJ">
    <mxGraphModel dx="1434" dy="876" grid="1" gridSize="10" guides="1" tooltips="1" connect="1" arrows="1" fold="1" page="1" pageScale="1" pageWidth="827" pageHeight="1169" math="0" shadow="0">
      <root>
        <mxCell id="0" />
        <mxCell id="1" parent="0" />
        <mxCell id="YXaQph0aPBBy9qZGOYRf-31" value="" style="rounded=0;whiteSpace=wrap;html=1;strokeColor=none;" vertex="1" parent="1">
          <mxGeometry x="10" y="10" width="620" height="540" as="geometry" />
        </mxCell>
        <mxCell id="YXaQph0aPBBy9qZGOYRf-13" style="edgeStyle=orthogonalEdgeStyle;rounded=0;orthogonalLoop=1;jettySize=auto;html=1;entryX=0.5;entryY=1;entryDx=0;entryDy=0;" edge="1" parent="1" source="YXaQph0aPBBy9qZGOYRf-1" target="YXaQph0aPBBy9qZGOYRf-11">
          <mxGeometry relative="1" as="geometry" />
        </mxCell>
        <mxCell id="YXaQph0aPBBy9qZGOYRf-27" style="edgeStyle=orthogonalEdgeStyle;rounded=0;orthogonalLoop=1;jettySize=auto;html=1;entryX=0;entryY=0.617;entryDx=0;entryDy=0;entryPerimeter=0;" edge="1" parent="1" source="YXaQph0aPBBy9qZGOYRf-1" target="YXaQph0aPBBy9qZGOYRf-25">
          <mxGeometry relative="1" as="geometry" />
        </mxCell>
        <mxCell id="YXaQph0aPBBy9qZGOYRf-1" value="Module 1" style="whiteSpace=wrap;html=1;aspect=fixed;" vertex="1" parent="1">
          <mxGeometry x="50" y="140" width="80" height="80" as="geometry" />
        </mxCell>
        <mxCell id="YXaQph0aPBBy9qZGOYRf-14" style="edgeStyle=orthogonalEdgeStyle;rounded=0;orthogonalLoop=1;jettySize=auto;html=1;entryX=0.5;entryY=1;entryDx=0;entryDy=0;" edge="1" parent="1" source="YXaQph0aPBBy9qZGOYRf-2" target="YXaQph0aPBBy9qZGOYRf-12">
          <mxGeometry relative="1" as="geometry" />
        </mxCell>
        <mxCell id="YXaQph0aPBBy9qZGOYRf-29" style="edgeStyle=orthogonalEdgeStyle;rounded=0;orthogonalLoop=1;jettySize=auto;html=1;entryX=1;entryY=0.75;entryDx=0;entryDy=0;" edge="1" parent="1" source="YXaQph0aPBBy9qZGOYRf-2" target="YXaQph0aPBBy9qZGOYRf-25">
          <mxGeometry relative="1" as="geometry" />
        </mxCell>
        <mxCell id="YXaQph0aPBBy9qZGOYRf-2" value="Module 2" style="rounded=0;whiteSpace=wrap;html=1;" vertex="1" parent="1">
          <mxGeometry x="430" y="140" width="90" height="80" as="geometry" />
        </mxCell>
        <mxCell id="YXaQph0aPBBy9qZGOYRf-4" style="edgeStyle=orthogonalEdgeStyle;rounded=0;orthogonalLoop=1;jettySize=auto;html=1;entryX=1;entryY=0.6;entryDx=0;entryDy=0;entryPerimeter=0;" edge="1" parent="1" source="YXaQph0aPBBy9qZGOYRf-3" target="YXaQph0aPBBy9qZGOYRf-1">
          <mxGeometry relative="1" as="geometry" />
        </mxCell>
        <mxCell id="YXaQph0aPBBy9qZGOYRf-5" style="edgeStyle=orthogonalEdgeStyle;rounded=0;orthogonalLoop=1;jettySize=auto;html=1;exitX=1;exitY=0.5;exitDx=0;exitDy=0;entryX=0;entryY=0.638;entryDx=0;entryDy=0;entryPerimeter=0;" edge="1" parent="1" source="YXaQph0aPBBy9qZGOYRf-3" target="YXaQph0aPBBy9qZGOYRf-2">
          <mxGeometry relative="1" as="geometry" />
        </mxCell>
        <mxCell id="YXaQph0aPBBy9qZGOYRf-3" value="ModuleLoader" style="ellipse;whiteSpace=wrap;html=1;aspect=fixed;" vertex="1" parent="1">
          <mxGeometry x="220" y="290" width="90" height="90" as="geometry" />
        </mxCell>
        <mxCell id="YXaQph0aPBBy9qZGOYRf-7" style="edgeStyle=orthogonalEdgeStyle;rounded=0;orthogonalLoop=1;jettySize=auto;html=1;entryX=0.5;entryY=1;entryDx=0;entryDy=0;" edge="1" parent="1" source="YXaQph0aPBBy9qZGOYRf-6" target="YXaQph0aPBBy9qZGOYRf-3">
          <mxGeometry relative="1" as="geometry" />
        </mxCell>
        <mxCell id="YXaQph0aPBBy9qZGOYRf-6" value="Bootstrapper" style="ellipse;whiteSpace=wrap;html=1;aspect=fixed;" vertex="1" parent="1">
          <mxGeometry x="225" y="450" width="80" height="80" as="geometry" />
        </mxCell>
        <mxCell id="YXaQph0aPBBy9qZGOYRf-23" style="edgeStyle=orthogonalEdgeStyle;rounded=0;orthogonalLoop=1;jettySize=auto;html=1;entryX=0;entryY=0.75;entryDx=0;entryDy=0;" edge="1" parent="1" source="YXaQph0aPBBy9qZGOYRf-11" target="YXaQph0aPBBy9qZGOYRf-20">
          <mxGeometry relative="1" as="geometry" />
        </mxCell>
        <mxCell id="YXaQph0aPBBy9qZGOYRf-11" value="Outbox" style="ellipse;whiteSpace=wrap;html=1;aspect=fixed;" vertex="1" parent="1">
          <mxGeometry x="100" y="60" width="50" height="50" as="geometry" />
        </mxCell>
        <mxCell id="YXaQph0aPBBy9qZGOYRf-22" style="edgeStyle=orthogonalEdgeStyle;rounded=0;orthogonalLoop=1;jettySize=auto;html=1;entryX=1;entryY=0.75;entryDx=0;entryDy=0;" edge="1" parent="1" source="YXaQph0aPBBy9qZGOYRf-12" target="YXaQph0aPBBy9qZGOYRf-20">
          <mxGeometry relative="1" as="geometry" />
        </mxCell>
        <mxCell id="YXaQph0aPBBy9qZGOYRf-12" value="Outbox" style="ellipse;whiteSpace=wrap;html=1;aspect=fixed;" vertex="1" parent="1">
          <mxGeometry x="420" y="60" width="50" height="50" as="geometry" />
        </mxCell>
        <mxCell id="YXaQph0aPBBy9qZGOYRf-16" style="edgeStyle=orthogonalEdgeStyle;rounded=0;orthogonalLoop=1;jettySize=auto;html=1;entryX=0.25;entryY=0;entryDx=0;entryDy=0;" edge="1" parent="1" source="YXaQph0aPBBy9qZGOYRf-15" target="YXaQph0aPBBy9qZGOYRf-1">
          <mxGeometry relative="1" as="geometry" />
        </mxCell>
        <mxCell id="YXaQph0aPBBy9qZGOYRf-15" value="Inbox" style="ellipse;whiteSpace=wrap;html=1;aspect=fixed;" vertex="1" parent="1">
          <mxGeometry x="40" y="60" width="50" height="50" as="geometry" />
        </mxCell>
        <mxCell id="YXaQph0aPBBy9qZGOYRf-18" style="edgeStyle=orthogonalEdgeStyle;rounded=0;orthogonalLoop=1;jettySize=auto;html=1;" edge="1" parent="1" source="YXaQph0aPBBy9qZGOYRf-17" target="YXaQph0aPBBy9qZGOYRf-2">
          <mxGeometry relative="1" as="geometry" />
        </mxCell>
        <mxCell id="YXaQph0aPBBy9qZGOYRf-17" value="Inbox" style="ellipse;whiteSpace=wrap;html=1;aspect=fixed;" vertex="1" parent="1">
          <mxGeometry x="480" y="60" width="50" height="50" as="geometry" />
        </mxCell>
        <mxCell id="YXaQph0aPBBy9qZGOYRf-21" style="edgeStyle=orthogonalEdgeStyle;rounded=0;orthogonalLoop=1;jettySize=auto;html=1;entryX=0.5;entryY=0;entryDx=0;entryDy=0;" edge="1" parent="1" source="YXaQph0aPBBy9qZGOYRf-20" target="YXaQph0aPBBy9qZGOYRf-17">
          <mxGeometry relative="1" as="geometry" />
        </mxCell>
        <mxCell id="YXaQph0aPBBy9qZGOYRf-24" style="edgeStyle=orthogonalEdgeStyle;rounded=0;orthogonalLoop=1;jettySize=auto;html=1;entryX=0.5;entryY=0;entryDx=0;entryDy=0;" edge="1" parent="1" source="YXaQph0aPBBy9qZGOYRf-20" target="YXaQph0aPBBy9qZGOYRf-15">
          <mxGeometry relative="1" as="geometry" />
        </mxCell>
        <mxCell id="YXaQph0aPBBy9qZGOYRf-20" value="MessageBroker" style="rounded=0;whiteSpace=wrap;html=1;" vertex="1" parent="1">
          <mxGeometry x="214" y="30" width="120" height="60" as="geometry" />
        </mxCell>
        <mxCell id="YXaQph0aPBBy9qZGOYRf-26" style="edgeStyle=orthogonalEdgeStyle;rounded=0;orthogonalLoop=1;jettySize=auto;html=1;entryX=1;entryY=0.25;entryDx=0;entryDy=0;" edge="1" parent="1" source="YXaQph0aPBBy9qZGOYRf-25" target="YXaQph0aPBBy9qZGOYRf-1">
          <mxGeometry relative="1" as="geometry" />
        </mxCell>
        <mxCell id="YXaQph0aPBBy9qZGOYRf-28" style="edgeStyle=orthogonalEdgeStyle;rounded=0;orthogonalLoop=1;jettySize=auto;html=1;entryX=0;entryY=0.25;entryDx=0;entryDy=0;" edge="1" parent="1" source="YXaQph0aPBBy9qZGOYRf-25" target="YXaQph0aPBBy9qZGOYRf-2">
          <mxGeometry relative="1" as="geometry" />
        </mxCell>
        <mxCell id="YXaQph0aPBBy9qZGOYRf-25" value="Service Container" style="rounded=0;whiteSpace=wrap;html=1;" vertex="1" parent="1">
          <mxGeometry x="214" y="130" width="120" height="60" as="geometry" />
        </mxCell>
      </root>
    </mxGraphModel>
  </diagram>
</mxfile>
